<svg height="2430" width="720" xmlns="http://www.w3.org/2000/svg">
<rect height="2430" fill="#555" width="720"></rect>
<text fill="#7f7" font-family="Courier New" font-size="12" xml:space="preserve">
<tspan x="10" y="26"></tspan>
<tspan x="10" y="42">&gt; npmdoc-dot@0.0.1 test /home/travis/build/npmdoc/node-npmdoc-dot</tspan>
<tspan x="10" y="58">&gt; (set -e; export PORT=$(utility2 shServerPortRandom); utility2 test test.js)</tspan>
<tspan x="10" y="74"></tspan>
<tspan x="10" y="90"></tspan>
<tspan x="10" y="106">[MODE_BUILD=npmTest] - 2017-04-06T19:35:44Z - npm-testing /home/travis/build/npmdoc/node-npmdoc-\</tspan>
<tspan x="10" y="122">dot</tspan>
<tspan x="10" y="138"></tspan>
<tspan x="10" y="154"></tspan>
<tspan x="10" y="170">covering $ /home/travis/.nvm/versions/node/v6.10.2/bin/node /home/travis/build/npmdoc/node-npmdo\</tspan>
<tspan x="10" y="186">c-dot/test.js</tspan>
<tspan x="10" y="202">merging file:///home/travis/build/npmdoc/node-npmdoc-dot/tmp/build/test-report.json to test-repo\</tspan>
<tspan x="10" y="218">rt</tspan>
<tspan x="10" y="234">&gt; server listening on http-port 58384</tspan>
<tspan x="10" y="250">*** Compilation speed test</tspan>
<tspan x="10" y="266">*** Small template length: 138</tspan>
<tspan x="10" y="282">*** Small template length: 138</tspan>
<tspan x="10" y="298">created apidoc file:///home/travis/build/npmdoc/node-npmdoc-dot/tmp/build/apidoc.html</tspan>
<tspan x="10" y="314"></tspan>
<tspan x="10" y="330"></tspan>
<tspan x="10" y="346">browserTest - created electron entry-page /home/travis/build/npmdoc/node-npmdoc-dot/tmp/electron\</tspan>
<tspan x="10" y="362">.15b44c3f8c00.c958602d68572.html</tspan>
<tspan x="10" y="378"></tspan>
<tspan x="10" y="394">[node test-case 1 of 6 passed] - testCase_buildLib_default</tspan>
<tspan x="10" y="410">[node test-case 2 of 6 passed] - testCase_buildReadme_default</tspan>
<tspan x="10" y="426">[node test-case 3 of 6 passed] - testCase_buildTest_default</tspan>
<tspan x="10" y="442"></tspan>
<tspan x="10" y="458">browserTest - created electron entry-page /home/travis/build/npmdoc/node-npmdoc-dot/tmp/electron\</tspan>
<tspan x="10" y="474">.15b44c3f8ff0.cb5822819e345.html</tspan>
<tspan x="10" y="490"></tspan>
<tspan x="10" y="506">Xlib:  extension "RANDR" missing on display ":99.0".</tspan>
<tspan x="10" y="522">Xlib:  extension "RANDR" missing on display ":99.0".</tspan>
<tspan x="10" y="538">merging file:///home/travis/build/npmdoc/node-npmdoc-dot/tmp/build/test-report.json to test-repo\</tspan>
<tspan x="10" y="554">rt</tspan>
<tspan x="10" y="570">Xlib:  extension "RANDR" missing on display ":99.0".</tspan>
<tspan x="10" y="586">[6017:0406/193546:WARNING:audio_manager.cc(314)] Multiple instances of AudioManager detected</tspan>
<tspan x="10" y="602">[6017:0406/193546:WARNING:audio_manager.cc(275)] Multiple instances of AudioManager detected</tspan>
<tspan x="10" y="618">[6046:0406/193546:ERROR:sandbox_linux.cc(343)] InitializeSandbox() called with multiple threads \</tspan>
<tspan x="10" y="634">in process gpu-process. </tspan>
<tspan x="10" y="650">[6017:0406/193546:ERROR:browser_gpu_channel_host_factory.cc(131)] Failed to create channel.</tspan>
<tspan x="10" y="666">merging file:///home/travis/build/npmdoc/node-npmdoc-dot/tmp/build/test-report.json to test-repo\</tspan>
<tspan x="10" y="682">rt</tspan>
<tspan x="10" y="698">Xlib:  extension "RANDR" missing on display ":99.0".</tspan>
<tspan x="10" y="714">[6029:0406/193546:WARNING:audio_manager.cc(314)] Multiple instances of AudioManager detected</tspan>
<tspan x="10" y="730">[6029:0406/193546:WARNING:audio_manager.cc(275)] Multiple instances of AudioManager detected</tspan>
<tspan x="10" y="746">[6077:0406/193546:ERROR:sandbox_linux.cc(343)] InitializeSandbox() called with multiple threads \</tspan>
<tspan x="10" y="762">in process gpu-process. </tspan>
<tspan x="10" y="778">[6029:0406/193546:ERROR:browser_gpu_channel_host_factory.cc(131)] Failed to create channel.</tspan>
<tspan x="10" y="794"></tspan>
<tspan x="10" y="810">browserTest - opened url /home/travis/build/npmdoc/node-npmdoc-dot/tmp/build/apidoc.html</tspan>
<tspan x="10" y="826"></tspan>
<tspan x="10" y="842">doU.js, f = 61.32khz (81.92k/1.336secs)</tspan>
<tspan x="10" y="858">doU.js, f = 61.32khz (81.92k/1.336secs)</tspan>
<tspan x="10" y="874">doU.js - looping, f = 78.09khz (81.92k/1.049secs)</tspan>
<tspan x="10" y="890">doU.js - looping, f = 78.09khz (81.92k/1.049secs)</tspan>
<tspan x="10" y="906"></tspan>
<tspan x="10" y="922">browserTest - opened url http://127.0.0.1:58384?modeTest=1</tspan>
<tspan x="10" y="938"></tspan>
<tspan x="10" y="954">doT.js - using this, f = 51.78khz (81.92k/1.582secs)</tspan>
<tspan x="10" y="970">doT.js - using this, f = 51.78khz (81.92k/1.582secs)</tspan>
<tspan x="10" y="986">&gt; server listening on http-port 51268</tspan>
<tspan x="10" y="1002">doT.js - using this - looping, f = 56.5khz (81.92k/1.45secs)</tspan>
<tspan x="10" y="1018">doT.js - using this - looping, f = 56.5khz (81.92k/1.45secs)</tspan>
<tspan x="10" y="1034">doU.js, f = 75.92khz (81.92k/1.079secs)</tspan>
<tspan x="10" y="1050">doU.js, f = 75.92khz (81.92k/1.079secs)</tspan>
<tspan x="10" y="1066">doU.js, f = 284.7khz (327.7k/1.151secs)</tspan>
<tspan x="10" y="1082">doU.js, f = 284.7khz (327.7k/1.151secs)</tspan>
<tspan x="10" y="1098">doU.js - looping, f = 222.5khz (327.7k/1.473secs)</tspan>
<tspan x="10" y="1114">doU.js - looping, f = 222.5khz (327.7k/1.473secs)</tspan>
<tspan x="10" y="1130">[node test-case 4 of 6 passed] - testCase_buildApp_default</tspan>
<tspan x="10" y="1146">doT.js - using this, f = 973.8khz (1.311M/1.346secs)</tspan>
<tspan x="10" y="1162">doT.js - using this, f = 973.8khz (1.311M/1.346secs)</tspan>
<tspan x="10" y="1178">doT.js - using this - looping, f = 712khz (1.311M/1.841secs)</tspan>
<tspan x="10" y="1194">doT.js - using this - looping, f = 712khz (1.311M/1.841secs)</tspan>
<tspan x="10" y="1210"></tspan>
<tspan x="10" y="1226">browserTest - created screenCapture file:///home/travis/build/npmdoc/node-npmdoc-dot/tmp/build/s\</tspan>
<tspan x="10" y="1242">creenCapture.npmTest.browser._2Fhome_2Ftravis_2Fbuild_2Fnpmdoc_2Fnode-npmdoc-dot_2Ftmp_2Fbuild_2\</tspan>
<tspan x="10" y="1258">Fapidoc.html.png</tspan>
<tspan x="10" y="1274"></tspan>
<tspan x="10" y="1290">browserTest - created screenCapture file:///home/travis/build/npmdoc/node-npmdoc-dot/tmp/build/s\</tspan>
<tspan x="10" y="1306">creenCapture.npmTest.browser._2Fhome_2Ftravis_2Fbuild_2Fnpmdoc_2Fnode-npmdoc-dot_2Ftmp_2Fbuild_2\</tspan>
<tspan x="10" y="1322">Fapidoc.html.html</tspan>
<tspan x="10" y="1338">doT.js - using it, f = 789.6khz (1.311M/1.66secs)</tspan>
<tspan x="10" y="1354">doT.js - using it, f = 789.6khz (1.311M/1.66secs)</tspan>
<tspan x="10" y="1370"></tspan>
<tspan x="10" y="1386">browserTest - exit-code 0 - /home/travis/build/npmdoc/node-npmdoc-dot/tmp/build/apidoc.html</tspan>
<tspan x="10" y="1402"></tspan>
<tspan x="10" y="1418">[node test-case 5 of 6 passed] - testCase_buildApidoc_default</tspan>
<tspan x="10" y="1434">[6029:0406/193604:INFO:CONSOLE(250)] "----------|-----------|-----------|-----------|-----------\</tspan>
<tspan x="10" y="1450">|</tspan>
<tspan x="10" y="1466">File      |   % Stmts |% Branches |   % Funcs |   % Lines |</tspan>
<tspan x="10" y="1482">----------|-----------|-----------|-----------|-----------|</tspan>
<tspan x="10" y="1498">----------|-----------|-----------|-----------|-----------|</tspan>
<tspan x="10" y="1514">All files |       100 |       100 |       100 |       100 |</tspan>
<tspan x="10" y="1530">----------|-----------|-----------|-----------|-----------|</tspan>
<tspan x="10" y="1546">", source: file:///home/travis/build/npmdoc/node-npmdoc-dot/tmp/electron.15b44c3f8ff0.cb5822819e\</tspan>
<tspan x="10" y="1562">345.html (250)</tspan>
<tspan x="10" y="1578">[6029:0406/193604:INFO:CONSOLE(250)] "created coverage file:///tmp/build/coverage.html/index.htm\</tspan>
<tspan x="10" y="1594">l", source: file:///home/travis/build/npmdoc/node-npmdoc-dot/tmp/electron.15b44c3f8ff0.cb5822819\</tspan>
<tspan x="10" y="1610">e345.html (250)</tspan>
<tspan x="10" y="1626"></tspan>
<tspan x="10" y="1642">browserTest - created screenCapture file:///home/travis/build/npmdoc/node-npmdoc-dot/tmp/build/s\</tspan>
<tspan x="10" y="1658">creenCapture.npmTest.browser..png</tspan>
<tspan x="10" y="1674"></tspan>
<tspan x="10" y="1690">browserTest - created screenCapture file:///home/travis/build/npmdoc/node-npmdoc-dot/tmp/build/s\</tspan>
<tspan x="10" y="1706">creenCapture.npmTest.browser..html</tspan>
<tspan x="10" y="1722">doT.js - using it - looping, f = 834.3khz (1.311M/1.571secs)</tspan>
<tspan x="10" y="1738">doT.js - using it - looping, f = 834.3khz (1.311M/1.571secs)</tspan>
<tspan x="10" y="1754"></tspan>
<tspan x="10" y="1770">browserTest - exit-code 0 - http://127.0.0.1:58384?modeTest=1</tspan>
<tspan x="10" y="1786"></tspan>
<tspan x="10" y="1802"></tspan>
<tspan x="10" y="1818">browserTest - merged coverage from /home/travis/build/npmdoc/node-npmdoc-dot/tmp/coverage.npmTes\</tspan>
<tspan x="10" y="1834">t.browser.%2F.json</tspan>
<tspan x="10" y="1850"></tspan>
<tspan x="10" y="1866"></tspan>
<tspan x="10" y="1882">browserTest - merging test-report from /home/travis/build/npmdoc/node-npmdoc-dot/tmp/test-report\</tspan>
<tspan x="10" y="1898">.npmTest.browser.%2F.json</tspan>
<tspan x="10" y="1914"></tspan>
<tspan x="10" y="1930">[node test-case 6 of 6 passed] - testCase_webpage_default</tspan>
<tspan x="10" y="1946">doT.js - append off, f = 1.035Mhz (1.311M/1.266secs)</tspan>
<tspan x="10" y="1962">doT.js - append off, f = 1.035Mhz (1.311M/1.266secs)</tspan>
<tspan x="10" y="1978">------------------------|-----------|-----------|-----------|-----------|</tspan>
<tspan x="10" y="1994">File                    |   % Stmts |% Branches |   % Funcs |   % Lines |</tspan>
<tspan x="10" y="2010">------------------------|-----------|-----------|-----------|-----------|</tspan>
<tspan x="10" y="2026">   node-npmdoc-dot/     |       100 |       100 |       100 |       100 |</tspan>
<tspan x="10" y="2042">      example.js        |       100 |       100 |       100 |       100 |</tspan>
<tspan x="10" y="2058">      lib.npmdoc_dot.js |       100 |       100 |       100 |       100 |</tspan>
<tspan x="10" y="2074">      test.js           |       100 |       100 |       100 |       100 |</tspan>
<tspan x="10" y="2090">------------------------|-----------|-----------|-----------|-----------|</tspan>
<tspan x="10" y="2106">All files               |       100 |       100 |       100 |       100 |</tspan>
<tspan x="10" y="2122">------------------------|-----------|-----------|-----------|-----------|</tspan>
<tspan x="10" y="2138"></tspan>
<tspan x="10" y="2154">created coverage file:///home/travis/build/npmdoc/node-npmdoc-dot/tmp/build/coverage.html/index.\</tspan>
<tspan x="10" y="2170">html</tspan>
<tspan x="10" y="2186">merging file:///home/travis/build/npmdoc/node-npmdoc-dot/tmp/build/test-report.json to test-repo\</tspan>
<tspan x="10" y="2202">rt</tspan>
<tspan x="10" y="2218"></tspan>
<tspan x="10" y="2234">-------------------------------------------------------</tspan>
<tspan x="10" y="2250">| test-report - buildNpmdoc - node - linux v6.10.2 - 2017-04-06T19:35:04.841Z</tspan>
<tspan x="10" y="2266">|   58297 ms            0 failed        6 passed      |</tspan>
<tspan x="10" y="2282">-------------------------------------------------------</tspan>
<tspan x="10" y="2298"></tspan>
<tspan x="10" y="2314">created test-report file:///home/travis/build/npmdoc/node-npmdoc-dot/tmp/build/test-report.html</tspan>
<tspan x="10" y="2330"></tspan>
<tspan x="10" y="2346"></tspan>
<tspan x="10" y="2362">npmTest - 0 failed tests</tspan>
<tspan x="10" y="2378"></tspan>
<tspan x="10" y="2394"></tspan>
<tspan x="10" y="2410">[MODE_BUILD=npmTest] - 2017-04-06T19:36:06Z - EXIT_CODE - 0</tspan>
</text>
</svg>
