<svg height="2558" width="720" xmlns="http://www.w3.org/2000/svg">
<rect height="2558" fill="#555" width="720"></rect>
<text fill="#7f7" font-family="Courier New" font-size="12" xml:space="preserve">
<tspan x="10" y="26"></tspan>
<tspan x="10" y="42">&gt; npmdoc-dot@0.0.1 test /home/travis/build/npmdoc/node-npmdoc-dot</tspan>
<tspan x="10" y="58">&gt; (set -e; export PORT=$(utility2 shServerPortRandom); utility2 test test.js)</tspan>
<tspan x="10" y="74"></tspan>
<tspan x="10" y="90"></tspan>
<tspan x="10" y="106">[MODE_BUILD=npmTest] - 2017-04-06T19:34:05Z - npm-testing /home/travis/build/npmdoc/node-npmdoc-\</tspan>
<tspan x="10" y="122">dot</tspan>
<tspan x="10" y="138"></tspan>
<tspan x="10" y="154"></tspan>
<tspan x="10" y="170">covering $ /home/travis/.nvm/versions/node/v6.10.2/bin/node /home/travis/build/npmdoc/node-npmdo\</tspan>
<tspan x="10" y="186">c-dot/test.js</tspan>
<tspan x="10" y="202">merging file:///home/travis/build/npmdoc/node-npmdoc-dot/tmp/build/test-report.json to test-repo\</tspan>
<tspan x="10" y="218">rt</tspan>
<tspan x="10" y="234">&gt; server listening on http-port 64604</tspan>
<tspan x="10" y="250">*** Compilation speed test</tspan>
<tspan x="10" y="266">*** Small template length: 138</tspan>
<tspan x="10" y="282">*** Small template length: 138</tspan>
<tspan x="10" y="298">created apidoc file:///home/travis/build/npmdoc/node-npmdoc-dot/tmp/build/apidoc.html</tspan>
<tspan x="10" y="314"></tspan>
<tspan x="10" y="330"></tspan>
<tspan x="10" y="346">browserTest - created electron entry-page /home/travis/build/npmdoc/node-npmdoc-dot/tmp/electron\</tspan>
<tspan x="10" y="362">.15b44c274920.29f9a21d229f1.html</tspan>
<tspan x="10" y="378"></tspan>
<tspan x="10" y="394">[node test-case 1 of 6 passed] - testCase_buildLib_default</tspan>
<tspan x="10" y="410">[node test-case 2 of 6 passed] - testCase_buildReadme_default</tspan>
<tspan x="10" y="426">[node test-case 3 of 6 passed] - testCase_buildTest_default</tspan>
<tspan x="10" y="442"></tspan>
<tspan x="10" y="458">browserTest - created electron entry-page /home/travis/build/npmdoc/node-npmdoc-dot/tmp/electron\</tspan>
<tspan x="10" y="474">.15b44c274e70.2ed53565fdcf2.html</tspan>
<tspan x="10" y="490"></tspan>
<tspan x="10" y="506">Xlib:  extension "RANDR" missing on display ":99.0".</tspan>
<tspan x="10" y="522">Xlib:  extension "RANDR" missing on display ":99.0".</tspan>
<tspan x="10" y="538">merging file:///home/travis/build/npmdoc/node-npmdoc-dot/tmp/build/test-report.json to test-repo\</tspan>
<tspan x="10" y="554">rt</tspan>
<tspan x="10" y="570">Xlib:  extension "RANDR" missing on display ":99.0".</tspan>
<tspan x="10" y="586">[4891:0406/193407:WARNING:audio_manager.cc(314)] Multiple instances of AudioManager detected</tspan>
<tspan x="10" y="602">[4891:0406/193407:WARNING:audio_manager.cc(275)] Multiple instances of AudioManager detected</tspan>
<tspan x="10" y="618">[4915:0406/193407:ERROR:sandbox_linux.cc(343)] InitializeSandbox() called with multiple threads \</tspan>
<tspan x="10" y="634">in process gpu-process. </tspan>
<tspan x="10" y="650">[4891:0406/193407:ERROR:browser_gpu_channel_host_factory.cc(131)] Failed to create channel.</tspan>
<tspan x="10" y="666">merging file:///home/travis/build/npmdoc/node-npmdoc-dot/tmp/build/test-report.json to test-repo\</tspan>
<tspan x="10" y="682">rt</tspan>
<tspan x="10" y="698">Xlib:  extension "RANDR" missing on display ":99.0".</tspan>
<tspan x="10" y="714">[4894:0406/193407:WARNING:audio_manager.cc(314)] Multiple instances of AudioManager detected</tspan>
<tspan x="10" y="730">[4894:0406/193407:WARNING:audio_manager.cc(275)] Multiple instances of AudioManager detected</tspan>
<tspan x="10" y="746">[4942:0406/193408:ERROR:sandbox_linux.cc(343)] InitializeSandbox() called with multiple threads \</tspan>
<tspan x="10" y="762">in process gpu-process. </tspan>
<tspan x="10" y="778">[4894:0406/193408:ERROR:browser_gpu_channel_host_factory.cc(131)] Failed to create channel.</tspan>
<tspan x="10" y="794"></tspan>
<tspan x="10" y="810">browserTest - opened url /home/travis/build/npmdoc/node-npmdoc-dot/tmp/build/apidoc.html</tspan>
<tspan x="10" y="826"></tspan>
<tspan x="10" y="842">doU.js, f = 19.35khz (40.96k/2.117secs)</tspan>
<tspan x="10" y="858">doU.js, f = 19.35khz (40.96k/2.117secs)</tspan>
<tspan x="10" y="874">doU.js - looping, f = 73.08khz (81.92k/1.121secs)</tspan>
<tspan x="10" y="890">doU.js - looping, f = 73.08khz (81.92k/1.121secs)</tspan>
<tspan x="10" y="906">doT.js - using this, f = 52.99khz (81.92k/1.546secs)</tspan>
<tspan x="10" y="922">doT.js - using this, f = 52.99khz (81.92k/1.546secs)</tspan>
<tspan x="10" y="938"></tspan>
<tspan x="10" y="954">browserTest - opened url http://127.0.0.1:64604?modeTest=1</tspan>
<tspan x="10" y="970"></tspan>
<tspan x="10" y="986">&gt; server listening on http-port 51807</tspan>
<tspan x="10" y="1002">doT.js - using this - looping, f = 44.11khz (81.92k/1.857secs)</tspan>
<tspan x="10" y="1018">doT.js - using this - looping, f = 44.11khz (81.92k/1.857secs)</tspan>
<tspan x="10" y="1034">doU.js, f = 74.54khz (81.92k/1.099secs)</tspan>
<tspan x="10" y="1050">doU.js, f = 74.54khz (81.92k/1.099secs)</tspan>
<tspan x="10" y="1066">doU.js, f = 298.2khz (327.7k/1.099secs)</tspan>
<tspan x="10" y="1082">doU.js, f = 298.2khz (327.7k/1.099secs)</tspan>
<tspan x="10" y="1098">doU.js - looping, f = 313.9khz (327.7k/1.044secs)</tspan>
<tspan x="10" y="1114">doU.js - looping, f = 313.9khz (327.7k/1.044secs)</tspan>
<tspan x="10" y="1130">doT.js - using this, f = 1.084Mhz (1.311M/1.209secs)</tspan>
<tspan x="10" y="1146">doT.js - using this, f = 1.084Mhz (1.311M/1.209secs)</tspan>
<tspan x="10" y="1162">[node test-case 4 of 6 passed] - testCase_buildApp_default</tspan>
<tspan x="10" y="1178">doT.js - using this - looping, f = 1.129Mhz (1.311M/1.161secs)</tspan>
<tspan x="10" y="1194">doT.js - using this - looping, f = 1.129Mhz (1.311M/1.161secs)</tspan>
<tspan x="10" y="1210">doT.js - using it, f = 1.081Mhz (1.311M/1.213secs)</tspan>
<tspan x="10" y="1226">doT.js - using it, f = 1.081Mhz (1.311M/1.213secs)</tspan>
<tspan x="10" y="1242">doT.js - using it - looping, f = 1.04Mhz (1.311M/1.26secs)</tspan>
<tspan x="10" y="1258">doT.js - using it - looping, f = 1.04Mhz (1.311M/1.26secs)</tspan>
<tspan x="10" y="1274"></tspan>
<tspan x="10" y="1290">browserTest - created screenCapture file:///home/travis/build/npmdoc/node-npmdoc-dot/tmp/build/s\</tspan>
<tspan x="10" y="1306">creenCapture.npmTest.browser._2Fhome_2Ftravis_2Fbuild_2Fnpmdoc_2Fnode-npmdoc-dot_2Ftmp_2Fbuild_2\</tspan>
<tspan x="10" y="1322">Fapidoc.html.png</tspan>
<tspan x="10" y="1338"></tspan>
<tspan x="10" y="1354">browserTest - created screenCapture file:///home/travis/build/npmdoc/node-npmdoc-dot/tmp/build/s\</tspan>
<tspan x="10" y="1370">creenCapture.npmTest.browser._2Fhome_2Ftravis_2Fbuild_2Fnpmdoc_2Fnode-npmdoc-dot_2Ftmp_2Fbuild_2\</tspan>
<tspan x="10" y="1386">Fapidoc.html.html</tspan>
<tspan x="10" y="1402">[4894:0406/193423:INFO:CONSOLE(250)] "----------|-----------|-----------|-----------|-----------\</tspan>
<tspan x="10" y="1418">|</tspan>
<tspan x="10" y="1434">File      |   % Stmts |% Branches |   % Funcs |   % Lines |</tspan>
<tspan x="10" y="1450">----------|-----------|-----------|-----------|-----------|</tspan>
<tspan x="10" y="1466">----------|-----------|-----------|-----------|-----------|</tspan>
<tspan x="10" y="1482">All files |       100 |       100 |       100 |       100 |</tspan>
<tspan x="10" y="1498">----------|-----------|-----------|-----------|-----------|</tspan>
<tspan x="10" y="1514">", source: file:///home/travis/build/npmdoc/node-npmdoc-dot/tmp/electron.15b44c274e70.2ed53565fd\</tspan>
<tspan x="10" y="1530">cf2.html (250)</tspan>
<tspan x="10" y="1546">[4894:0406/193423:INFO:CONSOLE(250)] "created coverage file:///tmp/build/coverage.html/index.htm\</tspan>
<tspan x="10" y="1562">l", source: file:///home/travis/build/npmdoc/node-npmdoc-dot/tmp/electron.15b44c274e70.2ed53565f\</tspan>
<tspan x="10" y="1578">dcf2.html (250)</tspan>
<tspan x="10" y="1594">doT.js - append off, f = 852.8khz (1.311M/1.537secs)</tspan>
<tspan x="10" y="1610">doT.js - append off, f = 852.8khz (1.311M/1.537secs)</tspan>
<tspan x="10" y="1626"></tspan>
<tspan x="10" y="1642">browserTest - exit-code 0 - /home/travis/build/npmdoc/node-npmdoc-dot/tmp/build/apidoc.html</tspan>
<tspan x="10" y="1658"></tspan>
<tspan x="10" y="1674">[node test-case 5 of 6 passed] - testCase_buildApidoc_default</tspan>
<tspan x="10" y="1690">doT.js - append off - looping, f = 999khz (1.311M/1.312secs)</tspan>
<tspan x="10" y="1706">doT.js - append off - looping, f = 999khz (1.311M/1.312secs)</tspan>
<tspan x="10" y="1722">*** Medium template length: 4416</tspan>
<tspan x="10" y="1738">*** Medium template length: 4416</tspan>
<tspan x="10" y="1754"></tspan>
<tspan x="10" y="1770">browserTest - created screenCapture file:///home/travis/build/npmdoc/node-npmdoc-dot/tmp/build/s\</tspan>
<tspan x="10" y="1786">creenCapture.npmTest.browser..png</tspan>
<tspan x="10" y="1802"></tspan>
<tspan x="10" y="1818">browserTest - created screenCapture file:///home/travis/build/npmdoc/node-npmdoc-dot/tmp/build/s\</tspan>
<tspan x="10" y="1834">creenCapture.npmTest.browser..html</tspan>
<tspan x="10" y="1850">doU.js, f = 3.966khz (5.12k/1.291secs)</tspan>
<tspan x="10" y="1866">doU.js, f = 3.966khz (5.12k/1.291secs)</tspan>
<tspan x="10" y="1882"></tspan>
<tspan x="10" y="1898">browserTest - exit-code 0 - http://127.0.0.1:64604?modeTest=1</tspan>
<tspan x="10" y="1914"></tspan>
<tspan x="10" y="1930"></tspan>
<tspan x="10" y="1946">browserTest - merged coverage from /home/travis/build/npmdoc/node-npmdoc-dot/tmp/coverage.npmTes\</tspan>
<tspan x="10" y="1962">t.browser.%2F.json</tspan>
<tspan x="10" y="1978"></tspan>
<tspan x="10" y="1994"></tspan>
<tspan x="10" y="2010">browserTest - merging test-report from /home/travis/build/npmdoc/node-npmdoc-dot/tmp/test-report\</tspan>
<tspan x="10" y="2026">.npmTest.browser.%2F.json</tspan>
<tspan x="10" y="2042"></tspan>
<tspan x="10" y="2058">[node test-case 6 of 6 passed] - testCase_webpage_default</tspan>
<tspan x="10" y="2074">doU.js - looping, f = 4.089khz (5.12k/1.252secs)</tspan>
<tspan x="10" y="2090">doU.js - looping, f = 4.089khz (5.12k/1.252secs)</tspan>
<tspan x="10" y="2106">------------------------|-----------|-----------|-----------|-----------|</tspan>
<tspan x="10" y="2122">File                    |   % Stmts |% Branches |   % Funcs |   % Lines |</tspan>
<tspan x="10" y="2138">------------------------|-----------|-----------|-----------|-----------|</tspan>
<tspan x="10" y="2154">   node-npmdoc-dot/     |       100 |       100 |       100 |       100 |</tspan>
<tspan x="10" y="2170">      example.js        |       100 |       100 |       100 |       100 |</tspan>
<tspan x="10" y="2186">      lib.npmdoc_dot.js |       100 |       100 |       100 |       100 |</tspan>
<tspan x="10" y="2202">      test.js           |       100 |       100 |       100 |       100 |</tspan>
<tspan x="10" y="2218">------------------------|-----------|-----------|-----------|-----------|</tspan>
<tspan x="10" y="2234">All files               |       100 |       100 |       100 |       100 |</tspan>
<tspan x="10" y="2250">------------------------|-----------|-----------|-----------|-----------|</tspan>
<tspan x="10" y="2266"></tspan>
<tspan x="10" y="2282">created coverage file:///home/travis/build/npmdoc/node-npmdoc-dot/tmp/build/coverage.html/index.\</tspan>
<tspan x="10" y="2298">html</tspan>
<tspan x="10" y="2314">merging file:///home/travis/build/npmdoc/node-npmdoc-dot/tmp/build/test-report.json to test-repo\</tspan>
<tspan x="10" y="2330">rt</tspan>
<tspan x="10" y="2346"></tspan>
<tspan x="10" y="2362">-------------------------------------------------------</tspan>
<tspan x="10" y="2378">| test-report - buildNpmdoc - node - linux v6.10.2 - 2017-04-06T19:33:42.568Z</tspan>
<tspan x="10" y="2394">|   43322 ms            0 failed        6 passed      |</tspan>
<tspan x="10" y="2410">-------------------------------------------------------</tspan>
<tspan x="10" y="2426"></tspan>
<tspan x="10" y="2442">created test-report file:///home/travis/build/npmdoc/node-npmdoc-dot/tmp/build/test-report.html</tspan>
<tspan x="10" y="2458"></tspan>
<tspan x="10" y="2474"></tspan>
<tspan x="10" y="2490">npmTest - 0 failed tests</tspan>
<tspan x="10" y="2506"></tspan>
<tspan x="10" y="2522"></tspan>
<tspan x="10" y="2538">[MODE_BUILD=npmTest] - 2017-04-06T19:34:29Z - EXIT_CODE - 0</tspan>
</text>
</svg>
